<?xml version="1.0" encoding="utf-8"?>
<!-- Generator: Adobe Illustrator 25.2.1, SVG Export Plug-In . SVG Version: 6.00 Build 0)  -->
<svg version="1.1" id="Layer_1" xmlns="http://www.w3.org/2000/svg" xmlns:xlink="http://www.w3.org/1999/xlink" x="0px" y="0px"
	 viewBox="0 0 1920 1080" style="enable-background:new 0 0 1920 1080;" xml:space="preserve">
<style type="text/css">
	.st0{fill:#FF6F48;}
</style>
<path class="st0" d="M1134.94,460.43L976.92,302.41c-10.5-10.5-27.53-10.5-38.03,0L785.06,456.23c-14.51,14.51-14.51,38.02,0,52.53
	l0,0c14.51,14.51,38.02,14.51,52.53,0l83.17-83.17v322.73c0,20.51,16.63,37.14,37.14,37.14h0c20.51,0,37.14-16.63,37.14-37.14
	V425.59l87.37,87.37c14.51,14.51,38.02,14.51,52.53,0l0,0C1149.44,498.45,1149.44,474.93,1134.94,460.43z"/>
</svg>
